<svg xmlns="http://www.w3.org/2000/svg" width="31.932" height="31.552" viewBox="0 0 31.932 31.552">
  <g id="print" transform="translate(-4 -4.667)">
    <circle id="Ellipse_10" data-name="Ellipse 10" cx="0.57" cy="0.57" r="0.57" transform="translate(11.983 24.814)" fill="#599ffc"/>
    <path id="Path_128" data-name="Path 128" d="M36,40h1.14v1.14H36Z" transform="translate(-13.753 -15.186)" fill="#599ffc"/>
    <circle id="Ellipse_11" data-name="Ellipse 11" cx="0.57" cy="0.57" r="0.57" transform="translate(7.421 24.814)" fill="#599ffc"/>
    <path id="Path_129" data-name="Path 129" d="M12,50H34.809v2.281H12Z" transform="translate(-3.438 -19.483)" fill="#599ffc"/>
    <path id="Path_130" data-name="Path 130" d="M44,40h1.14v1.14H44Z" transform="translate(-17.191 -15.186)" fill="#599ffc"/>
    <path id="Path_131" data-name="Path 131" d="M52,40h1.14v1.14H52Z" transform="translate(-20.63 -15.186)" fill="#599ffc"/>
    <path id="Path_132" data-name="Path 132" d="M4.57,49.685H35.362a.57.57,0,0,0,.57-.57V36.57a.57.57,0,0,0-.57-.57H4.57a.57.57,0,0,0-.57.57V49.115A.57.57,0,0,0,4.57,49.685Zm27.941-3.421a1.14,1.14,0,0,1-1.14,1.14H8.562a1.14,1.14,0,0,1-1.14-1.14V43.983a1.14,1.14,0,0,1,1.14-1.14H31.37a1.14,1.14,0,0,1,1.14,1.14ZM30.23,37.711a.57.57,0,0,1,.57-.57h2.281a.57.57,0,0,1,.57.57v2.281a.57.57,0,0,1-.57.57H30.8a.57.57,0,0,1-.57-.57Zm-4.562,0a.57.57,0,0,1,.57-.57h2.281a.57.57,0,0,1,.57.57v2.281a.57.57,0,0,1-.57.57H26.238a.57.57,0,0,1-.57-.57Zm-4.562,0a.57.57,0,0,1,.57-.57h2.281a.57.57,0,0,1,.57.57v2.281a.57.57,0,0,1-.57.57H21.677a.57.57,0,0,1-.57-.57Zm-8.553-.57a1.711,1.711,0,1,1-1.711,1.711A1.711,1.711,0,0,1,12.553,37.14Zm-4.562,0a1.711,1.711,0,1,1-1.711,1.711A1.711,1.711,0,0,1,7.992,37.14Z" transform="translate(0 -13.466)" fill="#599ffc"/>
    <path id="Path_134" data-name="Path 134" d="M54,24h1.14v5.7H54Z" transform="translate(-21.489 -8.309)" fill="#599ffc"/>
    <path id="Path_135" data-name="Path 135" d="M34.124,6.339a.591.591,0,0,1-.912,0L31.958,4.667,30.7,6.339a.591.591,0,0,1-.912,0L28.536,4.667,27.282,6.339a.591.591,0,0,1-.912,0L25.115,4.667,23.861,6.339a.591.591,0,0,1-.912,0L21.694,4.667,20.439,6.339a.591.591,0,0,1-.912,0L18.272,4.667,17.018,6.339a.591.591,0,0,1-.912,0L14.851,4.667,13.6,6.339a.591.591,0,0,1-.912,0L12,5.427V21.393H34.809V5.427Z" transform="translate(-3.438 0)" fill="#599ffc"/>
    <path id="Path_136" data-name="Path 136" d="M8,24H9.14v5.7H8Z" transform="translate(-1.719 -8.309)" fill="#599ffc"/>
  </g>
</svg>
