<svg xmlns="http://www.w3.org/2000/svg" width="31.902" height="31.902" viewBox="0 0 31.902 31.902">
  <g id="price" transform="translate(0 0)" fill="#ffffff">
    <g id="Group_57" data-name="Group 57" transform="translate(0 0)">
      <path id="Path_58" data-name="Path 58" d="M27.23,4.672A15.951,15.951,0,1,0,4.672,27.23,15.951,15.951,0,0,0,27.23,4.672ZM16.952,22.892h-.067v2.069a.935.935,0,0,1-1.869,0V22.892H12.948a.935.935,0,1,1,0-1.869h4a2.069,2.069,0,0,0,0-4.137h-2a3.938,3.938,0,0,1,0-7.876h.066V6.941a.935.935,0,0,1,1.869,0V9.01h2.069a.935.935,0,1,1,0,1.869h-4a2.069,2.069,0,0,0,0,4.137h2a3.938,3.938,0,0,1,0,7.876Z" transform="translate(0)" fill="#ffffff"/>
    </g>
  </g>
</svg>
