<svg id="tax" xmlns="http://www.w3.org/2000/svg" width="30" height="30" viewBox="0 0 30 30">
  <path id="Path_125" data-name="Path 125" d="M26.016,0H3.984A3.989,3.989,0,0,0,0,3.984V20.391A2.112,2.112,0,0,0,2.109,22.5H6.094v5.391A2.112,2.112,0,0,0,8.2,30H27.891A2.112,2.112,0,0,0,30,27.891V3.984A3.989,3.989,0,0,0,26.016,0ZM1.875,20.391V3.984a2.109,2.109,0,0,1,4.219,0V20.625H2.109A.235.235,0,0,1,1.875,20.391Zm26.25,7.5a.235.235,0,0,1-.234.234H8.2a.235.235,0,0,1-.234-.234V3.984a3.96,3.96,0,0,0-.606-2.109H26.016a2.112,2.112,0,0,1,2.109,2.109Z" fill="#279f27"/>
  <path id="Path_126" data-name="Path 126" d="M247.75,130.464a3.767,3.767,0,0,0-3.875-3.64,1.823,1.823,0,1,1,1.91-2.125.964.964,0,0,0,1.115.747.918.918,0,0,0,.8-1.048,3.721,3.721,0,0,0-2.852-2.92v-.57a.971.971,0,0,0-1.937,0v.57A3.7,3.7,0,0,0,240,125a3.767,3.767,0,0,0,3.875,3.64,1.823,1.823,0,1,1-1.91,2.125.964.964,0,0,0-1.115-.747.918.918,0,0,0-.8,1.048,3.721,3.721,0,0,0,2.852,2.92v.57a.971.971,0,0,0,1.938,0v-.57A3.7,3.7,0,0,0,247.75,130.464Z" transform="translate(-226.094 -112.734)" fill="#279f27"/>
</svg>
