<svg id="tax_filled" data-name="tax filled" xmlns="http://www.w3.org/2000/svg" width="30" height="30" viewBox="0 0 30 30">
  <path id="Path_127" data-name="Path 127" d="M26.016,0H3.984A3.989,3.989,0,0,0,0,3.984V20.391A2.112,2.112,0,0,0,2.109,22.5H6.094v5.391A2.112,2.112,0,0,0,8.2,30H27.891A2.112,2.112,0,0,0,30,27.891V3.984A3.989,3.989,0,0,0,26.016,0ZM6.094,20.625H2.109a.235.235,0,0,1-.234-.234L11.5,22.5c0-1.163-4.46-15.468-3.3-15.468S6.094,2.821,6.094,3.984ZM18.75,21.664V22a.955.955,0,0,1-.892.963.938.938,0,0,1-.983-.936v-.366a.294.294,0,0,0-.207-.28,3.732,3.732,0,0,1-2.553-2.949.937.937,0,1,1,1.849-.31,1.875,1.875,0,1,0,1.849-2.189,3.75,3.75,0,0,1-1.143-7.322.294.294,0,0,0,.206-.279V8a.955.955,0,0,1,.892-.963.937.937,0,0,1,.983.936v.366a.294.294,0,0,0,.207.28,3.732,3.732,0,0,1,2.553,2.949.937.937,0,1,1-1.849.31,1.875,1.875,0,1,0-1.849,2.189,3.75,3.75,0,0,1,1.143,7.322.294.294,0,0,0-.206.279Z" fill="#279f27"/>
</svg>
