<svg id="delete" xmlns="http://www.w3.org/2000/svg" width="30" height="30" viewBox="0 0 30 30">
  <circle id="Ellipse_9" data-name="Ellipse 9" cx="15" cy="15" r="15" fill="#fc723e"/>
  <g id="delete-2" data-name="delete" transform="translate(-2.268 4.616)">
    <path id="Path_116" data-name="Path 116" d="M26.01,3.431H20.865V2.573A2.576,2.576,0,0,0,18.292,0H16.576A2.576,2.576,0,0,0,14,2.573v.858H8.858A.858.858,0,0,0,8,4.288V6a.858.858,0,0,0,.858.858H26.01A.858.858,0,0,0,26.868,6V4.288A.858.858,0,0,0,26.01,3.431ZM15.719,2.573a.859.859,0,0,1,.858-.858h1.715a.859.859,0,0,1,.858.858v.858H15.719Z" fill="#fff"/>
    <path id="Path_117" data-name="Path 117" d="M25.319,84.064a.858.858,0,0,0,.856.8H38.182a.858.858,0,0,0,.856-.8L39.842,72H24.515Zm9.432-9.491h1.715v7.719H34.751Zm-3.431,0h1.715v7.719H31.321Zm-3.431,0h1.715v7.719H27.89Z" transform="translate(-14.745 -64.281)" fill="#fff"/>
  </g>
</svg>
