<svg id="register" xmlns="http://www.w3.org/2000/svg" fill="#599ffc"  width="34.892" height="34.892" viewBox="0 0 34.892 34.892">
  <path id="Path_73" data-name="Path 73" d="M15.994,2.908h-1.6a4.006,4.006,0,0,0-7.705,0H5.09A1.1,1.1,0,0,0,4,4V6.179A2.556,2.556,0,0,0,6.544,8.723h8a2.556,2.556,0,0,0,2.544-2.544V4A1.1,1.1,0,0,0,15.994,2.908Z" transform="translate(1.815)" fill="#599ffc"/>
  <path id="Path_74" data-name="Path 74" d="M20.717,3h-.363V4.817a4,4,0,0,1-4,4h-8a4,4,0,0,1-4-4V3H4A4,4,0,0,0,0,7V25.171a4,4,0,0,0,4,4h9.581a12.7,12.7,0,0,1-1.207-5.088H5.452a1.09,1.09,0,1,1,0-2.181h7.036a13.305,13.305,0,0,1,.64-2.544H5.452a1.09,1.09,0,1,1,0-2.181h8.723a12.583,12.583,0,0,1,2.006-2.544H5.452a1.09,1.09,0,1,1,0-2.181H19.176a12.535,12.535,0,0,1,5.539-1.439V7A4,4,0,0,0,20.717,3Z" transform="translate(0 1.361)" fill="#599ffc"/>
  <path id="Path_75" data-name="Path 75" d="M20.313,10.5a9.813,9.813,0,1,0,9.813,9.813A9.824,9.824,0,0,0,20.313,10.5Zm5.368,9.575a1.454,1.454,0,0,1-1.369.965H21.767v3.271a1.454,1.454,0,0,1-2.908,0V21.04H16.315a1.454,1.454,0,0,1-.92-2.579l4-3.271a2.612,2.612,0,0,1,.4-.222,1.441,1.441,0,0,1,1.051,0,2.744,2.744,0,0,1,.4.222l4,3.271A1.456,1.456,0,0,1,25.681,20.075Z" transform="translate(4.765 4.765)" fill="#599ffc"/>
</svg>
