<svg xmlns="http://www.w3.org/2000/svg" fill="#599ffc"  width="30.53" height="33.258" viewBox="0 0 30.53 33.258">
  <path id="x-ray" d="M51.523,26.764l-.349-7.025A1.633,1.633,0,0,0,49.747,18.2a7.807,7.807,0,0,0-6.32,2.376v-5.8a2.744,2.744,0,0,0-2.741-2.74H30.414a11.528,11.528,0,0,1-.329-3.994,3.925,3.925,0,0,0,1.674-.951.689.689,0,0,1,.773-.1,2.424,2.424,0,0,0,2.366.34,1.832,1.832,0,0,0,.982-1.374c.28-1.893-.014-3.364-.852-4.254A4.928,4.928,0,0,0,30.36.091a6.46,6.46,0,0,0-4.365,3.037,4.094,4.094,0,0,0-.043,2.32.673.673,0,0,1-.054.445,19.813,19.813,0,0,0-1.808,6.144h-.35A2.744,2.744,0,0,0,21,14.777V30.519a2.744,2.744,0,0,0,2.741,2.74H40.686a2.745,2.745,0,0,0,2.7-2.245c1.883-.141,3.6-.32,4.956-.481a3.627,3.627,0,0,0,3.186-3.769ZM27.7,28.922a1.452,1.452,0,0,1-.8-.885,39.122,39.122,0,0,1-1.889-14.961h.549c-.006,2.857.143,10.063,1.649,12.535a1.478,1.478,0,0,0,1.319.693,1.447,1.447,0,0,0,1.219-1.023c.365-.878.825-1.8-.055-2.95-1.305-1.705-1.053-7.114-.873-9.256h.751c.618,2.865,1.506,6.2,1.536,8.312a1.008,1.008,0,0,0,1.678.739,6.062,6.062,0,0,1,4.873-1.585,4.208,4.208,0,0,1,2.833,1.739,1.732,1.732,0,0,0,1.9.593V24.88H34.011a1.881,1.881,0,1,0-3.384,1.561A1.881,1.881,0,1,0,34.011,28h8.377v2.037C37.327,30.368,31.073,30.386,27.7,28.922ZM26.828,6.354a1.714,1.714,0,0,0,.137-1.135,3.088,3.088,0,0,1-.008-1.7c.465-1.137,4.35-4.262,7.314-1.111.773.822.742,2.3.581,3.39a.8.8,0,0,1-.431.6c-.544.281-.943-.157-1.418-.343a1.733,1.733,0,0,0-1.945.264c-1.1,1.006-1.53.522-1.8,1-.493.889-.336,2.524.094,4.709h-4.22a18.637,18.637,0,0,1,1.693-5.683ZM48.214,29.5c-1.21.144-2.886.322-4.787.465v-7.9c2.349-2.688,4.652-3.034,6.19-2.84a.6.6,0,0,1,.519.563l.349,7.025A2.584,2.584,0,0,1,48.214,29.5Z" transform="translate(-20.997 -0.001)" fill="#599ffc"/>
</svg>
