<svg id="Layer_3" fill="#599ffc"  enable-background="new 0 0 64 64" height="512" viewBox="0 0 64 64" width="512" xmlns="http://www.w3.org/2000/svg"><g><path d="m47 23h12v10h-12z"/><path d="m33 23h12v10h-12z"/><path d="m19 23h12v10h-12z"/><path d="m5 23h12v10h-12z"/><path d="m41 39h10v2h-10z"/><path d="m31 7c-1.103 0-2 .897-2 2v2h4v-2c0-1.103-.897-2-2-2z"/><path d="m42 11h-3v2h3c.552 0 1-.448 1-1s-.448-1-1-1z"/><path d="m47 3h-30v14h30zm-22 12h-5c-.553 0-1-.447-1-1v-9h2v8h4zm10 0h-2v-2h-4v2h-2v-6c0-2.206 1.794-4 4-4s4 1.794 4 4zm10-3c0 1.654-1.346 3-3 3h-4c-.553 0-1-.447-1-1v-4-4c0-.553.447-1 1-1h4c1.654 0 3 1.346 3 3 0 .771-.301 1.468-.78 2 .479.532.78 1.229.78 2z"/><path d="m42 7h-3v2h3c.552 0 1-.448 1-1s-.448-1-1-1z"/><path d="m59 13h-10v5c0 .553-.447 1-1 1h-32c-.553 0-1-.447-1-1v-5h-10v8h54z"/><path d="m5 35v18h6v-1c0-3.859 3.141-7 7-7s7 3.141 7 7v1h14v-1c0-3.859 3.141-7 7-7s7 3.141 7 7v1h6v-18zm34 3c0-.553.447-1 1-1h12c.553 0 1 .447 1 1v4c0 .553-.447 1-1 1h-12c-.553 0-1-.447-1-1zm-28 0c0-.553.447-1 1-1h12c.553 0 1 .447 1 1v4c0 .553-.447 1-1 1h-12c-.553 0-1-.447-1-1z"/><path d="m18 47c-2.757 0-5 2.243-5 5v5h10v-5c0-2.757-2.243-5-5-5z"/><path d="m25 55h14v2h-14z"/><path d="m5 55h6v2h-6z"/><path d="m46 47c-2.757 0-5 2.243-5 5v5h10v-5c0-2.757-2.243-5-5-5z"/><path d="m13 39h10v2h-10z"/><path d="m53 55h6v2h-6z"/><path d="m3 59h58v2h-58z"/></g></svg>