<svg xmlns="http://www.w3.org/2000/svg" viewBox="0 0 533.96 658.64"><defs><style>.cls-1{isolation:isolate;}.cls-2{fill:#4285f4;}.cls-3{fill:#db4437;}.cls-4{fill:#0f9d58;}.cls-4,.cls-5,.cls-6{mix-blend-mode:multiply;}.cls-5{fill:#0e6f00;stroke:#fff;stroke-miterlimit:10;stroke-width:10px;}.cls-6{fill:#f4b400;}</style></defs><title>favicon-mAsset 41</title><g class="cls-1"><g id="Layer_2" data-name="Layer 2"><g id="Layer_1-2" data-name="Layer 1"><rect class="cls-2" y="1" width="144.33" height="657.64" rx="72.16"/><rect class="cls-3" x="389.64" width="144.33" height="657.64" rx="72.16"/><path class="cls-4" d="M266.83,460h-.32a72.19,72.19,0,0,1-65-41l4.23,6.83A72.06,72.06,0,0,0,266.83,460Z"/><path class="cls-4" d="M522.82,111.17,332.16,419a72.07,72.07,0,0,0-3.74-69.17L266.83,250.4,400.12,35.18a72.16,72.16,0,1,1,122.7,76Z"/><path class="cls-5" d="M325.18,412.21l-3.78,6.1a64.07,64.07,0,0,1-109.16,0l-3.78-6.1a64.42,64.42,0,0,1,3.34-61.79l55-88.83,55,88.83A64.39,64.39,0,0,1,325.18,412.21Z"/><path class="cls-6" d="M205.23,349.85A72.07,72.07,0,0,0,201.49,419L10.83,111.17a72.16,72.16,0,1,1,122.7-76L266.83,250.4Z"/><path class="cls-6" d="M332.16,419a72.16,72.16,0,0,1-65.33,41,72.09,72.09,0,0,0,61.1-34.16Z"/></g></g></g></svg>