<svg xmlns="http://www.w3.org/2000/svg" width="65" height="31" viewBox="0 0 65 31">
  
    

      <circle id="Ellipse_13" data-name="Ellipse 13" cx="15" cy="15" r="15" fill="#599ffc"/>
      <g id="checking-attendance" transform="translate(8 5.294)">
        <g id="Group_168" data-name="Group 168" transform="translate(0 0.706)">
          <path id="Path_142" data-name="Path 142" d="M3.02,6.319a1.061,1.061,0,0,0,.265.577c.257,1.716,1.691,3.307,3,3.307,1.528,0,2.92-1.723,3.188-3.3a1.047,1.047,0,0,0,.27-.581c.087-.321.2-.879,0-1.142a.476.476,0,0,0-.032-.037A3.335,3.335,0,0,0,9.3,2.122a3.085,3.085,0,0,0-1.543-.95l-.478-.164a7.64,7.64,0,0,0-1.3-.3.336.336,0,0,0-.107.009.538.538,0,0,1-.194.023,1.326,1.326,0,0,0-.521.089A3.74,3.74,0,0,0,3.1,2.887a4.617,4.617,0,0,0,.018,2.2.424.424,0,0,0-.1.093C2.82,5.44,2.932,6,3.02,6.319Z" transform="translate(0.798 -0.706)" fill="#fff"/>
          <path id="Path_143" data-name="Path 143" d="M9.921,15.271c-.282-.158-.588-.31-.914-.454-.158-.07-.319-.136-.478-.2-.125-.047-.273-.108-.376-.135l-1.512-.408L9.47,8.318l1.212.765c.256.161.445.3.651.449l.043.032q.308.228.6.468a15.04,15.04,0,0,1,1.162,1.036l.079.078c.119-.131.235-.249.35-.375A4.967,4.967,0,0,0,13.026,9.6a2.423,2.423,0,0,0-1.049-.707s-.062-.019-.158-.051a11.873,11.873,0,0,0-1.28-.5c-.134-.048-.251-.1-.357-.141-.446-.22-.817-.469-.893-.7,0,0,.257,2.492-1.921,2.55l-.3-.014C5.09,9.85,4.959,7.484,4.959,7.484c-.206.649-2.689,1.4-2.689,1.4A2.429,2.429,0,0,0,1.22,9.6C.129,11.215,0,14.816,0,14.816c.014.823.37.909.37.909a22.122,22.122,0,0,0,6.447,1.318c.213.005.41-.006.608-.018l.005.02a27.382,27.382,0,0,0,3.937-.539l-.246-.322A4.2,4.2,0,0,0,9.921,15.271Z" transform="translate(0 1.154)" fill="#fff"/>
          <path id="Path_144" data-name="Path 144" d="M7.222,7.6c.027-.034.056-.069.084-.107A.248.248,0,0,1,7.3,7.46C7.274,7.51,7.246,7.552,7.222,7.6Z" transform="translate(1.983 1.148)" fill="#fff"/>
          <path id="Path_145" data-name="Path 145" d="M3.9,7.487,3.9,7.46l-.005.028c0-.005.006-.01.008-.015A.038.038,0,0,1,3.9,7.487Z" transform="translate(1.068 1.148)" fill="#fff"/>
          <path id="Path_146" data-name="Path 146" d="M15.864,8.644a18.38,18.38,0,0,0-2.016,1.676c-.636.6-1.239,1.24-1.819,1.9-.215.245-.424.492-.632.741a.052.052,0,0,1-.006-.011,10,10,0,0,0-.981-1.111c-.344-.339-.7-.653-1.068-.951-.185-.148-.371-.293-.561-.436s-.371-.271-.613-.424L6.661,13.088c.138.037.338.115.507.181s.356.143.531.22c.352.155.695.325,1.022.507a5.366,5.366,0,0,1,1.594,1.253l1.159,1.519.667-1.445c.335-.724.737-1.481,1.148-2.2s.859-1.439,1.34-2.126A17.35,17.35,0,0,1,16.2,9.032a7.763,7.763,0,0,1,1.97-1.575A8.156,8.156,0,0,0,15.864,8.644Z" transform="translate(1.829 1.147)" fill="#fff"/>
        </g>
      </g>
    
  
</svg>
