<?xml version="1.0"?>
<svg xmlns="http://www.w3.org/2000/svg" viewBox="0 0 512 512" fill="#599ffc"  width="512" height="512"><g id="Solid"><path d="M328,192h1.289L448.209,76.209A26.222,26.222,0,0,0,456,57.75,25.779,25.779,0,0,0,430.25,32h-.27a25.935,25.935,0,0,0-18.213,7.547L259.06,192.253A48.3,48.3,0,0,1,264,192ZM405.657,66.343l16,16L410.343,93.657l-16-16Zm-24,24,16,16-11.314,11.314-16-16Zm-24,24,16,16-11.314,11.314-16-16Zm-24,24,16,16-11.314,11.314-16-16Zm-24,24,16,16-11.314,11.314-16-16ZM409.737,136H488V343.788a152.469,152.469,0,0,1-105.855-50.917l-16.166-18.186A8,8,0,0,0,360,272H264a32,32,0,0,1,0-64H416V192H352.223ZM109.657,282.343a25.969,25.969,0,0,1,0-36.686l88.57-88.57A71.525,71.525,0,0,1,249.14,136h43.546L146.34,282.346a25.943,25.943,0,0,1-36.683,0ZM488,359.8v13.454A72.383,72.383,0,0,1,432,400H400a8,8,0,0,0-5.946,2.648l-62.1,69A26.04,26.04,0,0,1,313.692,480C299.564,480.26,288,468.319,288,454.188v-.428a25.217,25.217,0,0,1,7.387-17.833l.21-.21,70.06-70.06-11.314-11.314L284.283,424.4a25.944,25.944,0,0,1-8.4,5.62,26.606,26.606,0,0,1-24.733-2.628c-13.007-9.186-14.933-28.3-3.568-39.664l70.073-70.073-11.314-11.314L236.285,376.4c-11.214,11.214-30.124,9.551-39.429-3.206-5.391-7.389-7.845-22.265-.6-29.329l58.336-56.8A47.992,47.992,0,0,0,264,288h92.408l13.779,15.5A168.471,168.471,0,0,0,488,359.8ZM216,240a48.276,48.276,0,0,1,.253-4.939L32,419.313v60.441a126.267,126.267,0,0,0,81.943-37.011L152,404.687V368a8,8,0,0,1,2.419-5.731l83.936-81.725A48,48,0,0,1,216,240ZM96.307,429.361A133.062,133.062,0,0,1,50.53,455.59l-5.06-15.18a117.127,117.127,0,0,0,40.3-23.09l44.961-39.341,10.536,12.042Zm90.036-111.7-16-16,11.314-11.314,16,16Zm24-24-16-16,11.314-11.314,16,16Z"/></g></svg>
