<svg xmlns="http://www.w3.org/2000/svg" width="30" height="30" viewBox="0 0 30 30">
  <g id="profile" transform="translate(0)">
    <path id="Path_119" data-name="Path 119" d="M133.859,335.266a7.608,7.608,0,0,0-7.515,7.681c0,.245.012.487.034.726a14.6,14.6,0,0,0,14.962,0c.022-.239.034-.481.034-.726a7.608,7.608,0,0,0-7.515-7.681Zm0,0" transform="translate(-118.859 -315.737)" fill="#279f27"/>
    <path id="Path_120" data-name="Path 120" d="M25.606,4.387a15.015,15.015,0,0,0-21.213,0,14.965,14.965,0,0,0,0,21.185A15.2,15.2,0,0,0,5.658,26.7a9.361,9.361,0,0,1,5.786-8.137,6.527,6.527,0,1,1,7.109,0A9.361,9.361,0,0,1,24.341,26.7a15.238,15.238,0,0,0,1.265-1.129,14.965,14.965,0,0,0,0-21.185Zm0,0" transform="translate(0 0)" fill="#279f27"/>
    <path id="Path_121" data-name="Path 121" d="M184.246,147.291a4.822,4.822,0,1,0-4.822,4.822A4.828,4.828,0,0,0,184.246,147.291Zm0,0" transform="translate(-164.424 -134.164)" fill="#279f27"/>
  </g>
</svg>