<svg xmlns="http://www.w3.org/2000/svg" width="26.759" height="26.759" viewBox="0 0 26.759 26.759" fill="#ffffff" >
  <g id="calendar" transform="translate(0)">
    <g id="Group_62" data-name="Group 62" transform="translate(0)">
      <g id="Group_61" data-name="Group 61">
        <path id="Path_108" data-name="Path 108" d="M23.623,2.091H22.369V0H20.278V2.091H6.481V0H4.39V2.091H3.136A3.139,3.139,0,0,0,0,5.226v18.4a3.139,3.139,0,0,0,3.136,3.136H23.623a3.139,3.139,0,0,0,3.136-3.136V5.226A3.139,3.139,0,0,0,23.623,2.091Zm1.045,21.533a1.046,1.046,0,0,1-1.045,1.045H3.136a1.046,1.046,0,0,1-1.045-1.045V9.826H24.668Zm0-15.888H2.091V5.226A1.046,1.046,0,0,1,3.136,4.181H4.39V6.272H6.481V4.181h13.8V6.272h2.091V4.181h1.254a1.046,1.046,0,0,1,1.045,1.045Z" fill="#ffffff"/>
      </g>
    </g>
    <g id="Group_64" data-name="Group 64" transform="translate(4 11.893)">
      <g id="Group_63" data-name="Group 63" transform="translate(0 0)">
        <rect id="Rectangle_42" data-name="Rectangle 42" width="2" height="3" transform="translate(0.278 -0.171)" fill="#ffffff"/>
      </g>
    </g>
    <g id="Group_66" data-name="Group 66" transform="translate(7.964 11.893)">
      <g id="Group_65" data-name="Group 65" transform="translate(0 0)">
        <rect id="Rectangle_43" data-name="Rectangle 43" width="2" height="3" transform="translate(0.314 -0.171)" fill="#ffffff"/>
      </g>
    </g>
    <g id="Group_68" data-name="Group 68" transform="translate(12.722 11.893)">
      <g id="Group_67" data-name="Group 67" transform="translate(0 0)">
        <rect id="Rectangle_44" data-name="Rectangle 44" width="2" height="3" transform="translate(-0.444 -0.171)" fill="#ffffff"/>
      </g>
    </g>
    <g id="Group_70" data-name="Group 70" transform="translate(16.686 11.893)">
      <g id="Group_69" data-name="Group 69" transform="translate(0 0)">
        <rect id="Rectangle_45" data-name="Rectangle 45" width="3" height="3" transform="translate(-0.408 -0.171)" fill="#ffffff"/>
      </g>
    </g>
    <g id="Group_72" data-name="Group 72" transform="translate(20.651 11.893)">
      <g id="Group_71" data-name="Group 71" transform="translate(0 0)">
        <rect id="Rectangle_46" data-name="Rectangle 46" width="3" height="3" transform="translate(-0.373 -0.171)" fill="#ffffff"/>
      </g>
    </g>
    <g id="Group_74" data-name="Group 74" transform="translate(4 16.651)">
      <g id="Group_73" data-name="Group 73" transform="translate(0 0)">
        <rect id="Rectangle_47" data-name="Rectangle 47" width="2" height="2" transform="translate(0.278 0.071)" fill="#ffffff"/>
      </g>
    </g>
    <g id="Group_76" data-name="Group 76" transform="translate(7.964 16.651)">
      <g id="Group_75" data-name="Group 75" transform="translate(0 0)">
        <rect id="Rectangle_48" data-name="Rectangle 48" width="2" height="2" transform="translate(0.314 0.071)" fill="#ffffff"/>
      </g>
    </g>
    <g id="Group_78" data-name="Group 78" transform="translate(12.722 16.651)">
      <g id="Group_77" data-name="Group 77" transform="translate(0 0)">
        <rect id="Rectangle_49" data-name="Rectangle 49" width="2" height="2" transform="translate(-0.444 0.071)" fill="#ffffff"/>
      </g>
    </g>
    <g id="Group_80" data-name="Group 80" transform="translate(16.686 16.651)">
      <g id="Group_79" data-name="Group 79" transform="translate(0 0)">
        <rect id="Rectangle_50" data-name="Rectangle 50" width="3" height="2" transform="translate(-0.408 0.071)" fill="#ffffff"/>
      </g>
    </g>
    <g id="Group_82" data-name="Group 82" transform="translate(4 20.615)">
      <g id="Group_81" data-name="Group 81" transform="translate(0 0)">
        <rect id="Rectangle_51" data-name="Rectangle 51" width="2" height="2" transform="translate(0.278 0.107)" fill="#ffffff"/>
      </g>
    </g>
    <g id="Group_84" data-name="Group 84" transform="translate(7.964 20.615)">
      <g id="Group_83" data-name="Group 83" transform="translate(0 0)">
        <rect id="Rectangle_52" data-name="Rectangle 52" width="2" height="2" transform="translate(0.314 0.107)" fill="#ffffff"/>
      </g>
    </g>
    <g id="Group_86" data-name="Group 86" transform="translate(12.722 20.615)">
      <g id="Group_85" data-name="Group 85" transform="translate(0 0)">
        <rect id="Rectangle_53" data-name="Rectangle 53" width="2" height="2" transform="translate(-0.444 0.107)" fill="#ffffff"/>
      </g>
    </g>
    <g id="Group_88" data-name="Group 88" transform="translate(16.686 20.615)">
      <g id="Group_87" data-name="Group 87" transform="translate(0 0)">
        <rect id="Rectangle_54" data-name="Rectangle 54" width="3" height="2" transform="translate(-0.408 0.107)" fill="#ffffff"/>
      </g>
    </g>
    <g id="Group_90" data-name="Group 90" transform="translate(20.651 16.651)">
      <g id="Group_89" data-name="Group 89" transform="translate(0 0)">
        <rect id="Rectangle_55" data-name="Rectangle 55" width="3" height="2" transform="translate(-0.373 0.071)" fill="#ffffff"/>
      </g>
    </g>
  </g>
</svg>
