<?xml version="1.0" encoding="iso-8859-1"?>
<!-- Generator: Adobe Illustrator 19.0.0, SVG Export Plug-In . SVG Version: 6.00 Build 0)  -->
<svg version="1.1" fill="#ffffff"  id="Layer_1" xmlns="http://www.w3.org/2000/svg" xmlns:xlink="http://www.w3.org/1999/xlink" x="0px" y="0px"
	 viewBox="0 0 512.001 512.001" style="enable-background:new 0 0 512.001 512.001;" xml:space="preserve">
<g>
	<g>
		<g>
			<path d="M103.264,213.237h37.62c3.453,0,6.252-2.799,6.252-6.252v-95.234c0-3.453-2.798-6.252-6.252-6.252h-37.62
				c-3.452,0-6.252,2.798-6.252,6.252v95.234C97.012,210.438,99.811,213.237,103.264,213.237z"/>
			<path d="M18.755,213.237h53.251c3.452,0,6.252-2.799,6.252-6.252v-95.234c0-3.453-2.799-6.252-6.252-6.252H18.755
				C8.397,105.5,0,113.896,0,124.255v70.228C0,204.84,8.397,213.237,18.755,213.237z"/>
			<path d="M464.58,32.417H254.058c-26.148,0-47.422,21.273-47.422,47.421V105.5h-34.495c-3.452,0-6.252,2.798-6.252,6.252v95.234
				c0,3.452,2.799,6.252,6.252,6.252h34.495v18.755H16.052c-2.539,0-4.83,1.544-5.79,3.895c-3.207,7.85-5.324,13.005-6.736,16.466
				c-1.677,4.112,1.352,8.605,5.792,8.605h197.319v18.755H6.252c-3.452,0-6.252,2.799-6.252,6.252v174.864
				c0,10.359,8.397,18.755,18.755,18.755c2.821,0,436.681,0,445.825,0c26.148,0,47.422-21.273,47.422-47.422V79.839
				C512,53.689,490.728,32.417,464.58,32.417z M147.303,381.524h-6.474v6.474c0,10.358-8.397,18.755-18.755,18.755
				s-18.755-8.397-18.755-18.755v-6.474h-6.474c-10.358,0-18.755-8.397-18.755-18.755s8.397-18.755,18.755-18.755h6.474v-6.473
				c0-10.358,8.397-18.755,18.755-18.755s18.755,8.397,18.755,18.755v6.473h6.474c10.358,0,18.755,8.397,18.755,18.755
				S157.661,381.524,147.303,381.524z M292.356,389.043c-14.511,0-26.276-11.763-26.276-26.276c0-14.51,11.764-26.276,26.276-26.276
				s26.276,11.764,26.276,26.276C318.631,377.28,306.867,389.043,292.356,389.043z M292.356,282.276
				c-14.511,0-26.276-11.764-26.276-26.276c0-14.511,11.764-26.276,26.276-26.276s26.276,11.763,26.276,26.276
				C318.631,270.511,306.867,282.276,292.356,282.276z M292.356,174.122c-14.511,0-26.276-11.763-26.276-26.276
				s11.764-26.276,26.276-26.276s26.276,11.763,26.276,26.276S306.867,174.122,292.356,174.122z M368.697,390.43
				c0,5.179-4.197,9.378-9.378,9.378c-5.18,0-9.378-4.199-9.378-9.378V121.57c0-5.179,4.197-9.378,9.378-9.378
				c5.18,0,9.378,4.199,9.378,9.378V390.43z M426.282,389.043c-14.511,0-26.276-11.763-26.276-26.276
				c0-14.51,11.764-26.276,26.276-26.276c14.511,0,26.276,11.764,26.276,26.276C452.558,377.28,440.793,389.043,426.282,389.043z
				 M426.282,282.276c-14.511,0-26.276-11.764-26.276-26.276c0-14.511,11.764-26.276,26.276-26.276
				c14.511,0,26.276,11.763,26.276,26.276C452.558,270.511,440.793,282.276,426.282,282.276z M426.282,174.122
				c-14.511,0-26.276-11.763-26.276-26.276s11.764-26.276,26.276-26.276c14.511,0,26.276,11.763,26.276,26.276
				S440.793,174.122,426.282,174.122z"/>
		</g>
	</g>
</g>
<g>
</g>
<g>
</g>
<g>
</g>
<g>
</g>
<g>
</g>
<g>
</g>
<g>
</g>
<g>
</g>
<g>
</g>
<g>
</g>
<g>
</g>
<g>
</g>
<g>
</g>
<g>
</g>
<g>
</g>
</svg>
