<svg id="Layer_1" enable-background="new 0 0 511.992 511.992" height="512" viewBox="0 0 511.992 511.992" width="512" xmlns="http://www.w3.org/2000/svg"><path d="m490.927 412.007-5.369-108.146c-.607-12.227-9.845-22.212-21.967-23.742-42.11-5.324-75.589 16.071-97.296 36.579v-89.225c0-23.259-18.932-42.181-42.203-42.181h-158.133c-3.509-17.257-9.063-47.797-5.068-61.486 10.709-2.526 19.764-9.153 25.77-14.642 3.223-2.945 8.008-3.595 11.904-1.615 5.858 1.972 19.085 14.191 36.418 5.237 8.244-4.259 13.752-11.971 15.113-21.157 4.315-29.14-.218-51.787-13.111-65.495-25.203-26.799-52.989-28.251-71.858-24.75-33.508 6.216-61.005 31.594-67.203 46.76-4.648 11.376-2.929 25.699-.669 35.712.515 2.282.217 4.713-.838 6.846-14.758 29.8-23.415 62.054-27.83 94.591h-5.387c-23.271 0-42.203 18.922-42.203 42.181v242.339c0 23.259 18.932 42.182 42.203 42.182h260.892c20.666 0 37.898-14.928 41.5-34.559 28.989-2.169 55.382-4.929 76.289-7.412 28.947-3.441 50.491-28.923 49.046-58.017zm-366.67 33.219c-5.908-2.566-10.423-7.532-12.386-13.623-22.642-70.222-36.321-156.381-29.084-230.312h8.457c-.093 43.977 2.208 154.915 25.378 192.974 3.87 6.358 11.989 11.311 20.308 10.666 4.714-.361 13.42-2.888 18.761-15.744 5.617-13.521 12.701-27.713-.845-45.407-20.092-26.248-16.214-109.514-13.441-142.488h11.567c9.513 44.11 23.182 95.517 23.64 127.953.188 13.315 15.904 20.222 25.839 11.378 15.225-13.55 40.599-28.781 75.015-24.394 16.921 2.157 31.596 11.165 43.617 26.772 6.951 9.024 18.613 12.447 29.212 9.124v30.872h-128.953c-3.653-11.844-14.769-20.533-27.696-20.533-22.896 0-36.681 25.391-24.4 44.561-12.245 19.113 1.452 44.56 24.4 44.56 12.927 0 24.042-8.689 27.696-20.532h128.953v31.362c-77.908 5.068-174.178 5.344-226.038-17.189zm-13.502-347.426c2.681-5.412 3.429-11.616 2.108-17.469-2.444-10.826-2.491-20.353-.127-26.137 7.153-17.506 66.962-65.619 112.594-17.101 11.902 12.655 11.43 35.366 8.939 52.19-.597 4.033-3.014 7.418-6.629 9.285-8.377 4.327-14.514-2.418-21.827-5.285-9.8-4.98-21.834-3.346-29.945 4.068-16.957 15.493-23.551 8.036-27.663 15.451-7.592 13.69-5.176 38.86 1.45 72.487-20.123 0-45.783 0-64.967 0 4.604-32.475 13.303-61.715 26.067-87.489zm329.238 356.333c-18.625 2.212-44.434 4.953-73.698 7.157 0-20.798 0-90.284 0-121.578 36.155-41.374 71.613-46.709 95.292-43.721 4.409.558 7.77 4.2 7.991 8.662l5.369 108.146c1.029 20.729-14.324 38.884-34.954 41.334z"/></svg>